<?xml version="1.0" encoding="UTF-8" standalone="no"?>
<!DOCTYPE svg PUBLIC "-//W3C//DTD SVG 1.1//EN"
 "http://www.w3.org/Graphics/SVG/1.1/DTD/svg11.dtd">
<!-- Generated by graphviz version 2.40.1 (20161225.0304)
 -->
<!-- Title: G Pages: 1 -->
<svg width="266pt" height="216pt"
 viewBox="0.00 0.00 266.21 215.62" xmlns="http://www.w3.org/2000/svg" xmlns:xlink="http://www.w3.org/1999/xlink">
<g id="graph0" class="graph" transform="scale(1 1) rotate(0) translate(4 211.616)">
<title>G</title>
<polygon fill="#ffffff" stroke="transparent" points="-4,4 -4,-211.616 262.2064,-211.616 262.2064,4 -4,4"/>
<!-- a -->
<g id="node1" class="node">
<title>a</title>
<polygon fill="#add8e6" stroke="#add8e6" points="163.3979,-186.3308 136.4517,-198.68 109.5056,-186.3308 119.7981,-166.3493 153.1054,-166.3493 163.3979,-186.3308"/>
<polygon fill="none" stroke="#add8e6" points="168.8491,-188.2052 136.4517,-203.0527 104.0544,-188.2052 117.3582,-162.3777 155.5453,-162.3777 168.8491,-188.2052"/>
<polygon fill="none" stroke="#add8e6" points="174.3003,-190.0796 136.4517,-207.4254 98.6032,-190.0796 114.9183,-158.4061 157.9852,-158.4061 174.3003,-190.0796"/>
<text text-anchor="middle" x="136.4517" y="-177.108" font-family="Times,serif" font-size="14.00" fill="#000000">a</text>
</g>
<!-- b -->
<g id="node2" class="node">
<title>b</title>
<ellipse fill="none" stroke="#000000" cx="136.4517" cy="-100" rx="27" ry="18"/>
<text text-anchor="middle" x="136.4517" y="-96.3" font-family="Times,serif" font-size="14.00" fill="#000000">b</text>
</g>
<!-- a&#45;&gt;b -->
<g id="edge1" class="edge">
<title>a&#45;&gt;b</title>
<path fill="none" stroke="#000000" d="M136.4517,-158.2985C136.4517,-148.9701 136.4517,-138.047 136.4517,-128.1934"/>
<polygon fill="#000000" stroke="#000000" points="139.9518,-128.0468 136.4517,-118.0469 132.9518,-128.0469 139.9518,-128.0468"/>
</g>
<!-- c -->
<g id="node3" class="node">
<title>c</title>
<polygon fill="none" stroke="#000000" points="148.8552,-41 23.3533,-41 .0482,-5 125.5501,-5 148.8552,-41"/>
<text text-anchor="middle" x="74.4517" y="-19.3" font-family="Times,serif" font-size="14.00" fill="#000000">hello world</text>
</g>
<!-- b&#45;&gt;c -->
<g id="edge2" class="edge">
<title>b&#45;&gt;c</title>
<path fill="none" stroke="#000000" d="M123.6053,-84.0456C115.4995,-73.9787 104.837,-60.7365 95.515,-49.1592"/>
<polygon fill="#000000" stroke="#000000" points="98.0176,-46.6865 89.0198,-41.0926 92.5653,-51.0766 98.0176,-46.6865"/>
</g>
<!-- d -->
<g id="node4" class="node">
<title>d</title>
<polygon fill="none" stroke="#000000" points="198.4517,0 229.8475,-34.5 167.056,-34.5 198.4517,0"/>
<text text-anchor="middle" x="198.4517" y="-19.3" font-family="Times,serif" font-size="14.00" fill="#000000">d</text>
</g>
<!-- b&#45;&gt;d -->
<g id="edge3" class="edge">
<title>b&#45;&gt;d</title>
<path fill="none" stroke="#000000" d="M149.2982,-84.0456C158.958,-72.0487 172.2488,-55.5424 182.5746,-42.7183"/>
<polygon fill="#000000" stroke="#000000" points="185.3186,-44.8912 188.8641,-34.9072 179.8663,-40.5011 185.3186,-44.8912"/>
</g>
<!-- e -->
<g id="node5" class="node">
<title>e</title>
<polygon fill="none" stroke="#000000" points="257.9628,-198.808 192.9407,-198.808 211.7001,-162.808 239.2033,-162.808 257.9628,-198.808"/>
<text text-anchor="middle" x="225.4517" y="-177.108" font-family="Times,serif" font-size="14.00" fill="#000000">e</text>
</g>
</g>
</svg>
