<?xml version="1.0" encoding="UTF-8" standalone="no"?>
<!DOCTYPE svg PUBLIC "-//W3C//DTD SVG 1.1//EN"
 "http://www.w3.org/Graphics/SVG/1.1/DTD/svg11.dtd">
<!-- Generated by graphviz version 2.40.1 (20161225.0304)
 -->
<!-- Title: structs Pages: 1 -->
<svg width="268pt" height="151pt"
 viewBox="0.00 0.00 268.00 151.00" xmlns="http://www.w3.org/2000/svg" xmlns:xlink="http://www.w3.org/1999/xlink">
<g id="graph0" class="graph" transform="scale(1 1) rotate(0) translate(4 147)">
<title>structs</title>
<polygon fill="#ffffff" stroke="transparent" points="-4,4 -4,-147 264,-147 264,4 -4,4"/>
<!-- struct1 -->
<g id="node1" class="node">
<title>struct1</title>
<polygon fill="none" stroke="#000000" points="38,-106.5 38,-142.5 175,-142.5 175,-106.5 38,-106.5"/>
<text text-anchor="middle" x="55.5" y="-120.8" font-family="Times,serif" font-size="14.00" fill="#000000">left</text>
<polyline fill="none" stroke="#000000" points="73,-106.5 73,-142.5 "/>
<text text-anchor="middle" x="102.5" y="-120.8" font-family="Times,serif" font-size="14.00" fill="#000000">mid dle</text>
<polyline fill="none" stroke="#000000" points="132,-106.5 132,-142.5 "/>
<text text-anchor="middle" x="153.5" y="-120.8" font-family="Times,serif" font-size="14.00" fill="#000000">right</text>
</g>
<!-- struct2 -->
<g id="node2" class="node">
<title>struct2</title>
<polygon fill="none" stroke="#000000" points="0,-17 0,-53 75,-53 75,-17 0,-17"/>
<text text-anchor="middle" x="18.5" y="-31.3" font-family="Times,serif" font-size="14.00" fill="#000000">one</text>
<polyline fill="none" stroke="#000000" points="37,-17 37,-53 "/>
<text text-anchor="middle" x="56" y="-31.3" font-family="Times,serif" font-size="14.00" fill="#000000">two</text>
</g>
<!-- struct1&#45;&gt;struct2 -->
<g id="edge1" class="edge">
<title>struct1&#45;&gt;struct2</title>
<path fill="none" stroke="#000000" d="M92.5368,-106.3883C82.5297,-93.408 68.898,-75.7263 57.705,-61.2079"/>
<polygon fill="#000000" stroke="#000000" points="60.32,-58.8674 51.4424,-53.0847 54.7762,-63.1414 60.32,-58.8674"/>
</g>
<!-- struct3 -->
<g id="node3" class="node">
<title>struct3</title>
<polygon fill="none" stroke="#000000" points="93,-.5 93,-69.5 260,-69.5 260,-.5 93,-.5"/>
<text text-anchor="middle" x="117.5" y="-38.8" font-family="Times,serif" font-size="14.00" fill="#000000">hello</text>
<text text-anchor="middle" x="117.5" y="-23.8" font-family="Times,serif" font-size="14.00" fill="#000000">world</text>
<polyline fill="none" stroke="#000000" points="142,-.5 142,-69.5 "/>
<text text-anchor="middle" x="177" y="-54.3" font-family="Times,serif" font-size="14.00" fill="#000000">b</text>
<polyline fill="none" stroke="#000000" points="142,-46.5 212,-46.5 "/>
<text text-anchor="middle" x="153.5" y="-31.3" font-family="Times,serif" font-size="14.00" fill="#000000">c</text>
<polyline fill="none" stroke="#000000" points="165,-23.5 165,-46.5 "/>
<text text-anchor="middle" x="177" y="-31.3" font-family="Times,serif" font-size="14.00" fill="#000000">d</text>
<polyline fill="none" stroke="#000000" points="189,-23.5 189,-46.5 "/>
<text text-anchor="middle" x="200.5" y="-31.3" font-family="Times,serif" font-size="14.00" fill="#000000">e</text>
<polyline fill="none" stroke="#000000" points="142,-23.5 212,-23.5 "/>
<text text-anchor="middle" x="177" y="-8.3" font-family="Times,serif" font-size="14.00" fill="#000000">f</text>
<polyline fill="none" stroke="#000000" points="212,-.5 212,-69.5 "/>
<text text-anchor="middle" x="224" y="-31.3" font-family="Times,serif" font-size="14.00" fill="#000000">g</text>
<polyline fill="none" stroke="#000000" points="236,-.5 236,-69.5 "/>
<text text-anchor="middle" x="248" y="-31.3" font-family="Times,serif" font-size="14.00" fill="#000000">h</text>
</g>
<!-- struct1&#45;&gt;struct3 -->
<g id="edge2" class="edge">
<title>struct1&#45;&gt;struct3</title>
<path fill="none" stroke="#000000" d="M120.6655,-106.3883C127.1592,-98.0857 135.1573,-87.8596 143.0501,-77.7681"/>
<polygon fill="#000000" stroke="#000000" points="145.9228,-79.7763 149.3266,-69.7431 140.4089,-75.4638 145.9228,-79.7763"/>
</g>
</g>
</svg>
