<?xml version="1.0" encoding="UTF-8" standalone="no"?>
<!DOCTYPE svg PUBLIC "-//W3C//DTD SVG 1.1//EN"
 "http://www.w3.org/Graphics/SVG/1.1/DTD/svg11.dtd">
<!-- Generated by graphviz version 2.40.1 (20161225.0304)
 -->
<!-- Title: G Pages: 1 -->
<svg width="345pt" height="332pt"
 viewBox="0.00 0.00 344.50 332.00" xmlns="http://www.w3.org/2000/svg" xmlns:xlink="http://www.w3.org/1999/xlink">
<g id="graph0" class="graph" transform="scale(1 1) rotate(0) translate(4 328)">
<title>G</title>
<polygon fill="#ffffff" stroke="transparent" points="-4,4 -4,-328 340.5,-328 340.5,4 -4,4"/>
<!-- node0 -->
<g id="node1" class="node">
<title>node0</title>
<polygon fill="none" stroke="#000000" points="77,-300.5 77,-323.5 144,-323.5 144,-300.5 77,-300.5"/>
<text text-anchor="middle" x="87" y="-308.3" font-family="Times,serif" font-size="14.00" fill="#000000"> </text>
<polyline fill="none" stroke="#000000" points="97,-300.5 97,-323.5 "/>
<text text-anchor="middle" x="110.5" y="-308.3" font-family="Times,serif" font-size="14.00" fill="#000000">A</text>
<polyline fill="none" stroke="#000000" points="124,-300.5 124,-323.5 "/>
<text text-anchor="middle" x="134" y="-308.3" font-family="Times,serif" font-size="14.00" fill="#000000"> </text>
</g>
<!-- node1 -->
<g id="node2" class="node">
<title>node1</title>
<polygon fill="none" stroke="#000000" points="101.5,-240.5 101.5,-263.5 167.5,-263.5 167.5,-240.5 101.5,-240.5"/>
<text text-anchor="middle" x="111.5" y="-248.3" font-family="Times,serif" font-size="14.00" fill="#000000"> </text>
<polyline fill="none" stroke="#000000" points="121.5,-240.5 121.5,-263.5 "/>
<text text-anchor="middle" x="134.5" y="-248.3" font-family="Times,serif" font-size="14.00" fill="#000000">B</text>
<polyline fill="none" stroke="#000000" points="147.5,-240.5 147.5,-263.5 "/>
<text text-anchor="middle" x="157.5" y="-248.3" font-family="Times,serif" font-size="14.00" fill="#000000"> </text>
</g>
<!-- node0&#45;&gt;node1 -->
<g id="edge1" class="edge">
<title>node0:f2&#45;&gt;node1:f1</title>
<path fill="none" stroke="#000000" d="M134.5,-300C134.5,-288 134.5,-282.75 134.5,-274.125"/>
<polygon fill="#000000" stroke="#000000" points="138.0001,-274 134.5,-264 131.0001,-274 138.0001,-274"/>
</g>
<!-- node2 -->
<g id="node3" class="node">
<title>node2</title>
<polygon fill="none" stroke="#000000" points="30.5,-180.5 30.5,-203.5 96.5,-203.5 96.5,-180.5 30.5,-180.5"/>
<text text-anchor="middle" x="40.5" y="-188.3" font-family="Times,serif" font-size="14.00" fill="#000000"> </text>
<polyline fill="none" stroke="#000000" points="50.5,-180.5 50.5,-203.5 "/>
<text text-anchor="middle" x="63.5" y="-188.3" font-family="Times,serif" font-size="14.00" fill="#000000">C</text>
<polyline fill="none" stroke="#000000" points="76.5,-180.5 76.5,-203.5 "/>
<text text-anchor="middle" x="86.5" y="-188.3" font-family="Times,serif" font-size="14.00" fill="#000000"> </text>
</g>
<!-- node1&#45;&gt;node2 -->
<g id="edge2" class="edge">
<title>node1:f0&#45;&gt;node2:f1</title>
<path fill="none" stroke="#000000" d="M111.5,-240C111.5,-217.5 77.3281,-226.3242 66.6494,-213.613"/>
<polygon fill="#000000" stroke="#000000" points="69.9395,-212.4133 63.5,-204 63.2874,-214.5927 69.9395,-212.4133"/>
</g>
<!-- node3 -->
<g id="node4" class="node">
<title>node3</title>
<polygon fill="none" stroke="#000000" points="126,-180.5 126,-203.5 193,-203.5 193,-180.5 126,-180.5"/>
<text text-anchor="middle" x="136" y="-188.3" font-family="Times,serif" font-size="14.00" fill="#000000"> </text>
<polyline fill="none" stroke="#000000" points="146,-180.5 146,-203.5 "/>
<text text-anchor="middle" x="159.5" y="-188.3" font-family="Times,serif" font-size="14.00" fill="#000000">D</text>
<polyline fill="none" stroke="#000000" points="173,-180.5 173,-203.5 "/>
<text text-anchor="middle" x="183" y="-188.3" font-family="Times,serif" font-size="14.00" fill="#000000"> </text>
</g>
<!-- node1&#45;&gt;node3 -->
<g id="edge3" class="edge">
<title>node1:f1&#45;&gt;node3:f2</title>
<path fill="none" stroke="#000000" d="M134.5,-240C134.5,-217.1989 169.3838,-226.4842 180.285,-213.7101"/>
<polygon fill="#000000" stroke="#000000" points="183.6793,-214.5933 183.5,-204 177.0341,-212.393 183.6793,-214.5933"/>
</g>
<!-- node9 -->
<g id="node10" class="node">
<title>node9</title>
<polygon fill="none" stroke="#000000" points="0,-120.5 0,-143.5 67,-143.5 67,-120.5 0,-120.5"/>
<text text-anchor="middle" x="10" y="-128.3" font-family="Times,serif" font-size="14.00" fill="#000000"> </text>
<polyline fill="none" stroke="#000000" points="20,-120.5 20,-143.5 "/>
<text text-anchor="middle" x="33.5" y="-128.3" font-family="Times,serif" font-size="14.00" fill="#000000">K</text>
<polyline fill="none" stroke="#000000" points="47,-120.5 47,-143.5 "/>
<text text-anchor="middle" x="57" y="-128.3" font-family="Times,serif" font-size="14.00" fill="#000000"> </text>
</g>
<!-- node2&#45;&gt;node9 -->
<g id="edge9" class="edge">
<title>node2:f2&#45;&gt;node9:f1</title>
<path fill="none" stroke="#000000" d="M86.5,-180C86.5,-155.7512 48.0666,-167.3448 36.6567,-153.7367"/>
<polygon fill="#000000" stroke="#000000" points="39.9135,-152.4331 33.5,-144 33.2547,-154.592 39.9135,-152.4331"/>
</g>
<!-- node4 -->
<g id="node5" class="node">
<title>node4</title>
<polygon fill="none" stroke="#000000" points="85,-120.5 85,-143.5 150,-143.5 150,-120.5 85,-120.5"/>
<text text-anchor="middle" x="95" y="-128.3" font-family="Times,serif" font-size="14.00" fill="#000000"> </text>
<polyline fill="none" stroke="#000000" points="105,-120.5 105,-143.5 "/>
<text text-anchor="middle" x="117.5" y="-128.3" font-family="Times,serif" font-size="14.00" fill="#000000">E</text>
<polyline fill="none" stroke="#000000" points="130,-120.5 130,-143.5 "/>
<text text-anchor="middle" x="140" y="-128.3" font-family="Times,serif" font-size="14.00" fill="#000000"> </text>
</g>
<!-- node3&#45;&gt;node4 -->
<g id="edge4" class="edge">
<title>node3:f0&#45;&gt;node4:f0</title>
<path fill="none" stroke="#000000" d="M135.5,-180C135.5,-159.9182 107.3826,-165.0386 97.7172,-153.6201"/>
<polygon fill="#000000" stroke="#000000" points="100.991,-152.3737 94.5,-144 94.3523,-154.5938 100.991,-152.3737"/>
</g>
<!-- node5 -->
<g id="node6" class="node">
<title>node5</title>
<polygon fill="none" stroke="#000000" points="168.5,-120.5 168.5,-143.5 232.5,-143.5 232.5,-120.5 168.5,-120.5"/>
<text text-anchor="middle" x="178.5" y="-128.3" font-family="Times,serif" font-size="14.00" fill="#000000"> </text>
<polyline fill="none" stroke="#000000" points="188.5,-120.5 188.5,-143.5 "/>
<text text-anchor="middle" x="200.5" y="-128.3" font-family="Times,serif" font-size="14.00" fill="#000000">F</text>
<polyline fill="none" stroke="#000000" points="212.5,-120.5 212.5,-143.5 "/>
<text text-anchor="middle" x="222.5" y="-128.3" font-family="Times,serif" font-size="14.00" fill="#000000"> </text>
</g>
<!-- node3&#45;&gt;node5 -->
<g id="edge5" class="edge">
<title>node3:f1&#45;&gt;node5:f1</title>
<path fill="none" stroke="#000000" d="M159.5,-180C159.5,-159.9182 187.6174,-165.0386 197.2828,-153.6201"/>
<polygon fill="#000000" stroke="#000000" points="200.6477,-154.5938 200.5,-144 194.009,-152.3737 200.6477,-154.5938"/>
</g>
<!-- node6 -->
<g id="node7" class="node">
<title>node6</title>
<polygon fill="none" stroke="#000000" points="251,-120.5 251,-143.5 318,-143.5 318,-120.5 251,-120.5"/>
<text text-anchor="middle" x="261" y="-128.3" font-family="Times,serif" font-size="14.00" fill="#000000"> </text>
<polyline fill="none" stroke="#000000" points="271,-120.5 271,-143.5 "/>
<text text-anchor="middle" x="284.5" y="-128.3" font-family="Times,serif" font-size="14.00" fill="#000000">H</text>
<polyline fill="none" stroke="#000000" points="298,-120.5 298,-143.5 "/>
<text text-anchor="middle" x="308" y="-128.3" font-family="Times,serif" font-size="14.00" fill="#000000"> </text>
</g>
<!-- node3&#45;&gt;node6 -->
<g id="edge6" class="edge">
<title>node3:f2&#45;&gt;node6:f2</title>
<path fill="none" stroke="#000000" d="M193.5,-192C217.8389,-192 288.2294,-176.3128 304.9201,-153.7123"/>
<polygon fill="#000000" stroke="#000000" points="308.3255,-154.5934 308.5,-144 301.7575,-152.1724 308.3255,-154.5934"/>
</g>
<!-- node7 -->
<g id="node8" class="node">
<title>node7</title>
<polygon fill="none" stroke="#000000" points="254,-60.5 254,-83.5 315,-83.5 315,-60.5 254,-60.5"/>
<text text-anchor="middle" x="264" y="-68.3" font-family="Times,serif" font-size="14.00" fill="#000000"> </text>
<polyline fill="none" stroke="#000000" points="274,-60.5 274,-83.5 "/>
<text text-anchor="middle" x="284.5" y="-68.3" font-family="Times,serif" font-size="14.00" fill="#000000">I</text>
<polyline fill="none" stroke="#000000" points="295,-60.5 295,-83.5 "/>
<text text-anchor="middle" x="305" y="-68.3" font-family="Times,serif" font-size="14.00" fill="#000000"> </text>
</g>
<!-- node6&#45;&gt;node7 -->
<g id="edge7" class="edge">
<title>node6:f1&#45;&gt;node7:f1</title>
<path fill="none" stroke="#000000" d="M284.5,-120C284.5,-108 284.5,-102.75 284.5,-94.125"/>
<polygon fill="#000000" stroke="#000000" points="288.0001,-94 284.5,-84 281.0001,-94 288.0001,-94"/>
</g>
<!-- node8 -->
<g id="node9" class="node">
<title>node8</title>
<polygon fill="none" stroke="#000000" points="274.5,-.5 274.5,-23.5 336.5,-23.5 336.5,-.5 274.5,-.5"/>
<text text-anchor="middle" x="284.5" y="-8.3" font-family="Times,serif" font-size="14.00" fill="#000000"> </text>
<polyline fill="none" stroke="#000000" points="294.5,-.5 294.5,-23.5 "/>
<text text-anchor="middle" x="305.5" y="-8.3" font-family="Times,serif" font-size="14.00" fill="#000000">J</text>
<polyline fill="none" stroke="#000000" points="316.5,-.5 316.5,-23.5 "/>
<text text-anchor="middle" x="326.5" y="-8.3" font-family="Times,serif" font-size="14.00" fill="#000000"> </text>
</g>
<!-- node7&#45;&gt;node8 -->
<g id="edge8" class="edge">
<title>node7:f1&#45;&gt;node8:f0</title>
<path fill="none" stroke="#000000" d="M284.5,-60C284.5,-48 284.5,-42.75 284.5,-34.125"/>
<polygon fill="#000000" stroke="#000000" points="288.0001,-34 284.5,-24 281.0001,-34 288.0001,-34"/>
</g>
</g>
</svg>
